<?xml version="1.0" standalone="no"?>
<!DOCTYPE svg PUBLIC "-//W3C//DTD SVG 20010904//EN"
 "http://www.w3.org/TR/2001/REC-SVG-20010904/DTD/svg10.dtd">
<svg version="1.0" xmlns="http://www.w3.org/2000/svg"
 width="92.000000pt" height="118.000000pt" viewBox="0 0 92.000000 118.000000"
 preserveAspectRatio="xMidYMid meet">

<g transform="translate(0.000000,118.000000) scale(0.100000,-0.100000)"
fill="#000000" stroke="none">
<path d="M0 590 l0 -590 460 0 460 0 0 590 0 590 -460 0 -460 0 0 -590z m513
483 c-24 -2 -62 -2 -85 0 -24 2 -5 4 42 4 47 0 66 -2 43 -4z m-242 -18 c-96
-21 -134 -54 -98 -84 23 -18 93 -40 157 -47 l60 -7 0 27 c0 28 27 47 39 28 7
-12 30 -16 69 -14 13 1 20 7 17 12 -3 6 3 10 14 10 17 0 21 -6 21 -30 0 -26 4
-30 28 -30 47 1 148 25 176 43 51 34 23 66 -79 91 -33 8 -49 15 -35 15 35 1
127 -25 156 -43 21 -14 24 -24 24 -72 0 -30 -5 -64 -11 -75 -5 -11 -41 -40
-79 -64 -38 -24 -74 -54 -81 -67 -37 -69 -56 -236 -44 -393 7 -94 9 -100 41
-133 88 -91 3 -172 -181 -172 -83 0 -153 21 -185 55 -31 33 -21 85 23 119 l32
25 4 165 c5 248 -21 339 -113 394 -82 49 -107 83 -105 145 3 60 20 81 81 97
24 6 48 13 53 15 6 2 26 3 45 3 26 0 19 -3 -29 -13z"/>
</g>
</svg>
