<?xml version="1.0" standalone="no"?>
<!DOCTYPE svg PUBLIC "-//W3C//DTD SVG 20010904//EN"
 "http://www.w3.org/TR/2001/REC-SVG-20010904/DTD/svg10.dtd">
<svg version="1.0" xmlns="http://www.w3.org/2000/svg"
 width="146.000000pt" height="184.000000pt" viewBox="0 0 146.000000 184.000000"
 preserveAspectRatio="xMidYMid meet">

<g transform="translate(0.000000,184.000000) scale(0.100000,-0.100000)"
fill="#000000" stroke="none">
<path d="M525 1704 c-162 -25 -288 -72 -360 -135 -41 -36 -54 -78 -43 -134 5
-22 20 -98 33 -170 l24 -130 48 -44 c41 -38 113 -78 215 -119 29 -12 61 -85
79 -176 14 -77 11 -265 -7 -362 -21 -112 -21 -153 0 -209 21 -53 93 -120 145
-135 120 -33 237 14 289 116 31 62 35 112 15 205 -12 59 -17 128 -17 234 0
137 2 157 28 233 22 68 32 85 54 94 91 36 192 92 227 125 39 38 40 42 69 188
37 193 38 223 4 267 -96 125 -491 200 -803 152z m112 -40 c-3 -3 -12 -4 -19
-1 -8 3 -5 6 6 6 11 1 17 -2 13 -5z m230 0 c-3 -3 -12 -4 -19 -1 -8 3 -5 6 6
6 11 1 17 -2 13 -5z m-619 -121 c-14 -16 -30 -37 -36 -48 -6 -11 -12 -15 -12
-8 0 13 57 83 68 83 3 0 -6 -12 -20 -27z m767 -118 c79 -22 112 -40 120 -65 7
-22 -9 -50 -28 -50 -7 0 -7 4 1 12 35 35 -16 74 -128 100 -62 14 -353 17 -444
5 -33 -4 -58 -5 -55 -3 29 29 432 30 534 1z m-575 -20 c-46 -18 -64 -17 -25 0
17 8 37 14 45 14 8 0 -1 -7 -20 -14z m336 -45 c25 0 15 -29 -12 -36 -30 -8
-78 6 -76 21 1 12 42 25 60 19 8 -2 20 -4 28 -4z m-138 -58 c25 -16 2 -42 -38
-42 -38 0 -67 21 -55 40 7 12 74 13 93 2z m287 -2 c12 -19 -17 -40 -55 -40
-33 0 -37 3 -35 23 1 12 3 23 4 25 4 7 81 0 86 -8z m-468 -46 c-3 -3 -12 -4
-19 -1 -8 3 -5 6 6 6 11 1 17 -2 13 -5z m301 -1 c-10 -2 -26 -2 -35 0 -10 3
-2 5 17 5 19 0 27 -2 18 -5z m-241 -9 c-3 -3 -12 -4 -19 -1 -8 3 -5 6 6 6 11
1 17 -2 13 -5z m466 -1 c-7 -2 -19 -2 -25 0 -7 3 -2 5 12 5 14 0 19 -2 13 -5z
m-390 -10 c-7 -2 -21 -2 -30 0 -10 3 -4 5 12 5 17 0 24 -2 18 -5z m325 0 c-10
-2 -28 -2 -40 0 -13 2 -5 4 17 4 22 1 32 -1 23 -4z m-135 -10 c-24 -2 -62 -2
-85 0 -24 2 -5 4 42 4 47 0 66 -2 43 -4z m26 -299 c8 -7 -134 -3 -179 6 -29 5
-5 6 65 2 61 -2 112 -6 114 -8z m74 9 c-7 -2 -21 -2 -30 0 -10 3 -4 5 12 5 17
0 24 -2 18 -5z m-242 -613 c58 -26 140 -26 198 0 29 13 40 15 32 6 -35 -41
-192 -47 -252 -8 -42 27 -34 28 22 2z"/>
</g>
</svg>
