<?xml version="1.0" standalone="no"?>
<!DOCTYPE svg PUBLIC "-//W3C//DTD SVG 20010904//EN"
 "http://www.w3.org/TR/2001/REC-SVG-20010904/DTD/svg10.dtd">
<svg version="1.0" xmlns="http://www.w3.org/2000/svg"
 width="132.000000pt" height="184.000000pt" viewBox="0 0 132.000000 184.000000"
 preserveAspectRatio="xMidYMid meet">
<metadata>
Created by potrace 1.16, written by Peter Selinger 2001-2019
</metadata>
<g transform="translate(0.000000,184.000000) scale(0.100000,-0.100000)"
fill="#000000" stroke="none">
<path d="M460 1714 c-80 -10 -237 -47 -277 -66 -24 -11 -49 -30 -55 -41 -7
-13 -9 -64 -6 -141 6 -142 19 -180 76 -213 40 -23 161 -56 245 -69 45 -6 48
-8 43 -30 -3 -13 -9 -35 -12 -49 -4 -14 -1 -32 6 -40 25 -30 27 -117 5 -151
-38 -59 -5 -98 92 -111 27 -3 55 -10 63 -15 18 -10 -74 1 -108 13 -35 13 -40
11 -34 -17 2 -14 -4 -50 -14 -80 -13 -40 -16 -59 -8 -71 15 -24 78 -43 169
-52 74 -8 76 -8 25 -10 -31 0 -82 6 -115 14 -59 16 -74 12 -75 -21 0 -6 -31
-28 -70 -48 l-70 -37 0 -127 c0 -147 5 -159 79 -197 162 -81 445 -63 543 35
l38 38 0 118 c0 66 -4 124 -8 131 -4 6 -32 22 -62 35 -68 30 -93 54 -85 79 6
18 4 18 -36 4 -23 -8 -51 -15 -63 -14 -11 1 -4 5 18 10 51 12 96 40 96 59 0 8
-8 38 -18 65 -22 59 -22 97 1 120 22 22 21 47 -4 96 -17 34 -19 46 -9 72 7 22
7 33 0 35 -5 2 0 12 12 22 23 18 23 19 6 65 -13 34 -14 47 -5 50 7 2 56 13
110 24 53 11 124 32 156 47 80 35 93 66 97 229 4 134 1 141 -70 177 -80 41
-206 59 -431 63 -115 2 -226 1 -245 -1z m380 -14 c171 -18 310 -69 310 -114 0
-22 -45 -55 -102 -75 -67 -23 -192 -44 -233 -39 -27 3 -30 7 -33 43 -4 48 -14
55 -72 53 -33 -1 -37 -2 -15 -5 76 -11 50 -43 -35 -43 -85 0 -111 32 -35 43
22 3 17 4 -16 6 -55 1 -66 -9 -71 -64 l-3 -40 -45 3 c-133 10 -287 59 -309
100 -49 92 326 167 659 132z"/>
</g>
</svg>
